<?xml version="1.0" encoding="UTF-8" standalone="no"?><!DOCTYPE svg PUBLIC "-//W3C//DTD SVG 1.1//EN" "http://www.w3.org/Graphics/SVG/1.1/DTD/svg11.dtd"><svg width="100%" height="100%" viewBox="0 0 2084 2084" version="1.1" xmlns="http://www.w3.org/2000/svg" xmlns:xlink="http://www.w3.org/1999/xlink" xml:space="preserve" xmlns:serif="http://www.serif.com/" style="fill-rule:evenodd;clip-rule:evenodd;stroke-linejoin:round;stroke-miterlimit:2;"><g id="Background_Complete"></g><g id="Floor"></g><g id="Device"></g><g id="Plant"></g><g id="Speech_Bubble"></g><g id="Bot"><g><g><g><path d="M762.983,1246l-175.691,-18.35l-74.138,-168.708l-57.75,15.066c0,0 42.684,178.271 90.392,205.892c47.708,27.621 210.912,32.642 210.912,32.642l6.275,-66.542Z" style="fill:#ff725e;fill-rule:nonzero;"/></g><g><path d="M740.001,1228.15c28.538,-32.113 77.778,-35.014 109.891,-6.476c32.112,28.538 35.014,77.778 6.476,109.891c-28.538,32.112 -77.779,35.014 -109.891,6.476c-32.113,-28.538 -35.014,-77.779 -6.476,-109.891Z" style="fill:#263238;"/><path d="M798.133,1357.84c-20.82,-0 -40.391,-8.109 -55.112,-22.83c-14.721,-14.716 -22.829,-34.287 -22.829,-55.112c-0,-20.825 8.108,-40.392 22.829,-55.113c14.721,-14.72 34.292,-22.833 55.112,-22.833c20.821,0 40.392,8.108 55.113,22.833c14.721,14.717 22.825,34.292 22.825,55.113c-0,20.817 -8.109,40.392 -22.825,55.112c-14.721,14.721 -34.292,22.83 -55.113,22.83Zm0,-155.671c-20.762,-0 -40.283,8.083 -54.966,22.766c-14.679,14.68 -22.767,34.2 -22.767,54.963c0,20.762 8.083,40.283 22.767,54.962c14.683,14.684 34.204,22.767 54.966,22.767c20.763,-0 40.284,-8.083 54.963,-22.767c14.683,-14.679 22.767,-34.2 22.767,-54.962c-0,-20.763 -8.084,-40.284 -22.767,-54.963c-14.679,-14.683 -34.2,-22.766 -54.963,-22.766Z" style="fill:#263238;fill-rule:nonzero;"/></g><g><path d="M544.478,1179.78c31.331,-7.52 62.874,11.811 70.394,43.142c7.52,31.332 -11.811,62.874 -43.142,70.394c-31.331,7.52 -62.874,-11.811 -70.394,-43.142c-7.52,-31.331 11.811,-62.873 43.142,-70.394Z" style="fill:#263238;"/></g><g><path d="M446.329,1005.16c18.614,-18.614 48.838,-18.614 67.452,0c18.613,18.614 18.613,48.838 -0,67.452c-18.614,18.613 -48.838,18.613 -67.452,-0c-18.613,-18.614 -18.613,-48.838 0,-67.452Z" style="fill:#263238;"/></g><g><path d="M515.217,1046.2l39.212,-33.117c4.313,-3.641 4.859,-10.091 1.217,-14.404l-0.967,-1.142c-3.641,-4.312 -10.091,-4.858 -14.404,-1.212l-39.212,33.117l14.154,16.758Z" style="fill:#263238;fill-rule:nonzero;"/></g><g><path d="M504.529,1002.16l0,-49.85c0,-5.645 -4.575,-10.22 -10.221,-10.22l-1.495,-0c-5.646,-0 -10.221,4.575 -10.221,10.22l-0,49.85c-0,0.813 0.658,1.475 1.475,1.475l18.991,0c0.813,-0.004 1.471,-0.662 1.471,-1.475Z" style="fill:#263238;fill-rule:nonzero;"/></g><g><path d="M480.046,1001.15l-10.883,-48.65c-1.234,-5.508 -6.7,-8.975 -12.209,-7.746l-1.458,0.325c-5.508,1.233 -8.975,6.696 -7.746,12.208l10.883,48.65c0.18,0.796 0.967,1.296 1.763,1.117l18.537,-4.146c0.792,-0.175 1.292,-0.962 1.113,-1.758Z" style="fill:#263238;fill-rule:nonzero;"/></g><g><path d="M456.033,1007.86l-24.925,-43.17c-2.82,-4.892 -9.075,-6.567 -13.962,-3.742l-1.296,0.746c-4.892,2.825 -6.563,9.075 -3.742,13.966l24.925,43.171c0.409,0.704 1.309,0.946 2.013,0.542l16.45,-9.496c0.704,-0.408 0.946,-1.308 0.537,-2.017Z" style="fill:#263238;fill-rule:nonzero;"/></g></g><g><g><path d="M1525.75,1682.94l52.517,-22.337l-151.581,-356.375l-52.517,22.338l151.581,356.374Z" style="fill:#ff725e;"/></g><g><path d="M1315.44,1237.61c27.769,-32.778 76.926,-36.845 109.704,-9.075c32.778,27.769 36.845,76.926 9.076,109.704c-27.769,32.778 -76.926,36.845 -109.704,9.076c-32.779,-27.769 -36.845,-76.926 -9.076,-109.705Z" style="fill:#263238;"/><path d="M1374.92,1366c-7.721,-0 -15.479,-1.159 -23.067,-3.504c-19.891,-6.134 -36.208,-19.65 -45.937,-38.054c-9.729,-18.405 -11.708,-39.496 -5.571,-59.396c6.138,-19.892 19.65,-36.205 38.058,-45.934c18.413,-9.725 39.5,-11.708 59.392,-5.566c19.892,6.133 36.208,19.65 45.933,38.054c9.729,18.404 11.709,39.5 5.571,59.396c-6.137,19.891 -19.65,36.208 -38.058,45.933c-11.383,6.017 -23.796,9.071 -36.321,9.071Zm-0.196,-155.746c-12.487,0 -24.871,3.042 -36.225,9.046c-18.354,9.7 -31.833,25.971 -37.954,45.812c-6.121,19.842 -4.146,40.875 5.554,59.234c9.704,18.354 25.971,31.837 45.813,37.954c19.845,6.117 40.883,4.146 59.233,-5.558c18.358,-9.7 31.837,-25.971 37.958,-45.813l0.096,0.033l-0.096,-0.033c6.117,-19.842 4.142,-40.879 -5.558,-59.233c-9.704,-18.354 -25.971,-31.838 -45.817,-37.954c-7.562,-2.33 -15.304,-3.488 -23.004,-3.488Z" style="fill:#263238;fill-rule:nonzero;"/></g><g><path d="M1420.03,1489.4c8.628,-31.045 40.838,-49.243 71.882,-40.615c31.044,8.629 49.243,40.838 40.614,71.882c-8.628,31.045 -40.838,49.243 -71.882,40.615c-31.044,-8.629 -49.243,-40.838 -40.614,-71.882Z" style="fill:#263238;"/></g><g><g><path d="M1609.43,1671.55c-8.341,-24.987 -35.358,-38.483 -60.345,-30.141c-24.988,8.341 -38.484,35.358 -30.142,60.345c8.342,24.988 35.358,38.484 60.346,30.142c24.987,-8.342 38.479,-35.358 30.141,-60.346Z" style="fill:#263238;fill-rule:nonzero;"/></g><g><path d="M1528.53,1690.86l-26.708,43.83c-2.938,4.82 -1.413,11.112 3.408,14.05l1.279,0.779c4.821,2.937 11.113,1.412 14.05,-3.409l26.709,-43.829l-18.738,-11.421Z" style="fill:#263238;fill-rule:nonzero;"/></g><g><path d="M1552.61,1729.25l15.783,47.287c1.787,5.355 7.579,8.246 12.933,6.459l1.421,-0.475c5.354,-1.788 8.246,-7.579 6.458,-12.933l-15.783,-47.288c-0.258,-0.771 -1.092,-1.188 -1.867,-0.933l-18.016,6.012c-0.771,0.263 -1.188,1.1 -0.929,1.871Z" style="fill:#263238;fill-rule:nonzero;"/></g><g><path d="M1576.15,1722.45l25.725,42.7c2.913,4.838 9.196,6.396 14.034,3.479l1.283,-0.771c4.837,-2.912 6.396,-9.195 3.479,-14.033l-25.725,-42.7c-0.421,-0.696 -1.325,-0.921 -2.025,-0.5l-16.271,9.8c-0.696,0.421 -0.921,1.325 -0.5,2.025Z" style="fill:#263238;fill-rule:nonzero;"/></g><g><path d="M1596.81,1708.48l37.313,33.059c4.225,3.746 10.687,3.354 14.429,-0.871l0.992,-1.121c3.741,-4.225 3.354,-10.687 -0.871,-14.429l-37.313,-33.058c-0.608,-0.538 -1.541,-0.484 -2.079,0.125l-12.596,14.216c-0.541,0.609 -0.483,1.542 0.125,2.079Z" style="fill:#263238;fill-rule:nonzero;"/></g></g></g><g><path d="M774.85,1198.93c0,0 5.617,546.388 312.246,557.075c306.629,10.688 319.479,-553.166 319.479,-557.075c-0,0 -36.212,-81.487 -315.863,-78.295c-279.65,3.187 -315.862,78.295 -315.862,78.295Z" style="fill:#ff725e;fill-rule:nonzero;"/></g><g><path d="M947.129,1102.73l259.179,0c16.913,0 30.625,-13.708 30.625,-30.625l0,-4.483c0,-16.913 -13.708,-30.625 -30.625,-30.625l-259.179,-0c-16.912,-0 -30.625,13.708 -30.625,30.625l0,4.483c0.004,16.917 13.713,30.625 30.625,30.625Z" style="fill:#263238;fill-rule:nonzero;"/></g><g><rect x="1065.6" y="503.719" width="22.375" height="113.142" style="fill:#263238;"/></g><g><path d="M1388.57,825.637c35.303,-8.393 70.778,13.454 79.171,48.757c8.393,35.303 -13.454,70.778 -48.757,79.171c-35.302,8.393 -70.778,-13.454 -79.171,-48.757c-8.393,-35.303 13.455,-70.778 48.757,-79.171Z" style="fill:#ff725e;"/></g><g><path d="M725.439,821.105c35.386,-8.026 70.632,14.186 78.658,49.573c8.027,35.386 -14.186,70.631 -49.572,78.658c-35.386,8.026 -70.632,-14.186 -78.658,-49.572c-8.027,-35.387 14.186,-70.632 49.572,-78.659Z" style="fill:#ff725e;"/></g><g><path d="M1063.73,592.329c0,0 -267.329,-3.212 -309.65,228.329c-42.321,231.546 183.759,235.867 248.779,240.255c29.488,1.987 92.567,2.191 148.23,1.229c123.233,-2.142 210.308,-25.992 239.941,-140.321c3.454,-13.333 5.788,-27.021 6.659,-40.946c7.837,-125.312 -76.988,-294.713 -333.959,-288.546Z" style="fill:#ff725e;fill-rule:nonzero;"/></g><g><path d="M1257.66,944.988l-388.38,6.062c-40.708,0.638 -74.225,-31.85 -74.862,-72.558c-0.634,-40.709 31.85,-74.225 72.558,-74.859l388.379,-6.062c40.709,-0.638 74.225,31.85 74.859,72.558c0.641,40.704 -31.846,74.221 -72.554,74.859Z" style="fill:#263238;fill-rule:nonzero;"/></g><g><path d="M949.875,870.45c-2.512,12.821 -14.942,21.179 -27.762,18.667c-12.821,-2.513 -21.18,-14.942 -18.667,-27.763c2.512,-12.821 14.946,-21.179 27.766,-18.667c12.817,2.513 21.176,14.942 18.663,27.763Z" style="fill:#fff;fill-rule:nonzero;"/></g><g><path d="M1221.2,866.125c-2.512,12.821 -14.941,21.179 -27.762,18.667c-12.821,-2.513 -21.179,-14.942 -18.667,-27.763c2.513,-12.821 14.942,-21.179 27.763,-18.666c12.82,2.508 21.179,14.937 18.666,27.762Z" style="fill:#fff;fill-rule:nonzero;"/></g><g><g><g><g><path d="M1182.16,1415.92c-4.255,58.233 -54.913,101.987 -113.146,97.733c-58.234,-4.258 -101.992,-54.912 -97.734,-113.145c4.259,-58.234 54.913,-101.988 113.146,-97.734c58.234,4.259 101.988,54.913 97.733,113.146Z" style="fill:#263238;fill-rule:nonzero;"/></g></g><g><g><path d="M1153.56,1413.83c-3.1,42.434 -40.016,74.321 -82.45,71.217c-42.433,-3.104 -74.32,-40.017 -71.216,-82.45c3.104,-42.433 40.016,-74.317 82.45,-71.217c42.429,3.104 74.316,40.017 71.216,82.45Z" style="fill:#fff;fill-rule:nonzero;"/></g></g></g><g><g><g><path d="M1116.4,1427.84c-0.296,-0.18 -0.521,-4.742 -0.712,-12.709c-0.192,-7.971 -0.35,-19.321 -0.363,-33.196l0.85,1.525c-11.537,-6.729 -24.971,-14.566 -39.637,-23.116l2.212,0.033c-12.437,6.987 -25.921,14.567 -39.996,22.475c-1.083,1.804 1.459,-2.45 1.196,-2.008l0,0.175l-0.004,0.187l-0.004,0.379l-0.013,0.755l-0.02,1.508l-0.046,3l-0.096,5.946c-0.067,3.941 -0.129,7.833 -0.196,11.671c-0.146,7.654 -0.287,15.087 -0.425,22.254l-1.079,-1.934c14.487,8.85 27.692,16.917 39.158,23.921l-1.746,-0.025c12.221,-6.575 22.288,-11.821 29.396,-15.433c7.109,-3.617 11.229,-5.583 11.525,-5.408c0.296,0.175 -3.258,2.495 -10.008,6.616c-6.75,4.117 -16.717,10.05 -29.208,17.267l-0.855,0.492l-0.891,-0.521c-11.604,-6.767 -24.971,-14.563 -39.638,-23.117l-1.091,-0.637l0.012,-1.3c0.071,-7.167 0.146,-14.601 0.225,-22.255c0.05,-3.837 0.096,-7.729 0.146,-11.666l0.083,-5.946l0.042,-3l0.021,-1.509l0.012,-0.754l0.004,-0.375l0.005,-0.191l-0,-0.18c-0.263,0.434 2.283,-3.829 1.208,-2.025c14.121,-7.824 27.65,-15.32 40.129,-22.237l1.133,-0.629l1.08,0.658c14.487,8.85 27.758,16.959 39.158,23.921l0.879,0.538l-0.029,0.987c-0.425,14.421 -0.921,26.008 -1.342,33.904c-0.425,7.909 -0.779,12.138 -1.075,11.959Z" style="fill:#ff725e;fill-rule:nonzero;"/></g></g></g></g><g><path d="M1050.69,475.388c14.393,-14.392 37.762,-14.392 52.155,-0c14.392,14.392 14.392,37.762 -0,52.155c-14.393,14.392 -37.762,14.392 -52.155,-0c-14.392,-14.393 -14.392,-37.763 0,-52.155Z" style="fill:#ff725e;"/></g><g><g><path d="M1017.88,859.542c1.759,0.187 0.884,8.462 6.046,19.462c2.496,5.463 6.65,11.433 12.559,16.508c5.862,5.08 13.67,8.975 22.225,9.863c8.579,0.679 16.962,-1.738 23.65,-5.671c6.729,-3.917 11.899,-9.037 15.341,-13.958c7.071,-9.883 7.708,-18.175 9.471,-18.046c0.688,0.013 1.408,2.104 1.408,6.017c0.025,3.908 -1.108,9.62 -4.304,15.979c-3.158,6.35 -8.671,13.15 -16.608,18.479c-7.85,5.321 -18.504,8.938 -29.946,8.004c-11.417,-1.154 -21.233,-6.642 -27.992,-13.296c-6.841,-6.679 -11.029,-14.362 -12.987,-21.179c-1.988,-6.829 -2.071,-12.658 -1.338,-16.496c0.713,-3.854 1.796,-5.779 2.475,-5.666Z" style="fill:#fff;fill-rule:nonzero;"/></g></g><g><g><path d="M1373.83,967.513c-0.392,-0.226 4.4,-7.5 9.013,-20.63c4.733,-13.058 8.862,-31.962 10.841,-53.104c2.113,-21.154 1.792,-40.462 1.25,-54.379c-0.325,-6.962 -0.65,-12.6 -0.962,-16.487c-0.279,-3.892 -0.363,-6.059 -0.213,-6.075c0.15,-0.017 0.517,2.112 1.054,5.991c0.571,3.871 1.134,9.509 1.655,16.488c0.937,13.95 1.504,33.366 -0.621,54.675c-1.992,21.291 -6.4,40.354 -11.563,53.425c-2.508,6.562 -5.096,11.65 -7.075,15.029c-2.058,3.346 -3.25,5.146 -3.379,5.067Z" style="fill:#263238;fill-rule:nonzero;"/></g></g><g><g><path d="M754.688,813.096c0.141,0.046 -0.338,2.167 -1.321,5.946c-0.517,1.883 -1.117,4.196 -1.663,6.916c-0.566,2.713 -1.358,5.771 -1.875,9.221c-1.304,6.846 -2.316,15.096 -2.929,24.279c-0.475,9.192 -0.467,19.325 0.425,29.913c0.988,10.583 2.763,20.562 4.85,29.529c2.217,8.933 4.671,16.875 7.158,23.387c1.117,3.305 2.434,6.175 3.471,8.746c1.017,2.584 2.017,4.75 2.854,6.513c1.634,3.546 2.48,5.55 2.346,5.621c-0.133,0.07 -1.229,-1.796 -3.104,-5.246c-0.958,-1.713 -2.075,-3.842 -3.204,-6.392c-1.15,-2.542 -2.575,-5.387 -3.792,-8.687c-2.691,-6.496 -5.321,-14.459 -7.671,-23.463c-2.216,-9.029 -4.075,-19.117 -5.07,-29.812c-0.9,-10.705 -0.85,-20.955 -0.259,-30.234c0.725,-9.271 1.913,-17.579 3.417,-24.441c0.621,-3.459 1.521,-6.517 2.204,-9.217c0.663,-2.708 1.388,-5 2.029,-6.858c1.238,-3.738 1.988,-5.771 2.134,-5.721Z" style="fill:#263238;fill-rule:nonzero;"/></g></g><g><g><path d="M773.575,1198.45c0.013,-0.033 0.558,0.125 1.608,0.471c1.146,0.387 2.684,0.912 4.642,1.579c4.175,1.471 10.142,3.575 17.771,6.267c3.862,1.379 8.142,2.908 12.817,4.575c4.716,1.575 9.92,3.062 15.466,4.787c11.134,3.308 23.663,7.588 37.904,10.938c7.084,1.816 14.5,3.72 22.225,5.7c7.738,1.945 15.921,3.395 24.317,5.22c16.763,3.85 34.95,6.467 54.021,9.555c38.287,5.199 80.692,8.77 125.304,8.962c44.629,-0.183 87.042,-3.746 125.338,-8.942c19.079,-3.087 37.266,-5.7 54.029,-9.545c8.396,-1.821 16.579,-3.271 24.316,-5.217c7.725,-1.979 15.146,-3.883 22.225,-5.7c14.242,-3.35 26.771,-7.625 37.905,-10.933c5.545,-1.725 10.745,-3.209 15.466,-4.788c4.675,-1.667 8.959,-3.196 12.817,-4.575c7.629,-2.687 13.592,-4.792 17.767,-6.262c1.958,-0.667 3.495,-1.188 4.641,-1.58c1.05,-0.346 1.596,-0.504 1.609,-0.466c0.012,0.033 -0.505,0.262 -1.53,0.675c-1.125,0.437 -2.637,1.029 -4.566,1.779c-4.146,1.562 -10.067,3.796 -17.642,6.65c-3.846,1.433 -8.112,3.021 -12.771,4.758c-4.704,1.638 -9.896,3.179 -15.429,4.963c-11.117,3.42 -23.633,7.808 -37.875,11.258c-7.083,1.862 -14.504,3.812 -22.233,5.846c-7.742,1.991 -15.934,3.487 -24.338,5.35c-16.783,3.933 -35,6.616 -54.112,9.766c-38.367,5.317 -80.884,8.946 -125.621,9.13c-44.721,-0.192 -87.229,-3.83 -125.588,-9.155c-19.108,-3.15 -37.325,-5.837 -54.108,-9.77c-8.408,-1.863 -16.596,-3.359 -24.337,-5.355c-7.73,-2.033 -15.15,-3.983 -22.234,-5.85c-14.241,-3.45 -26.758,-7.841 -37.875,-11.262c-5.533,-1.783 -10.725,-3.329 -15.429,-4.967c-4.658,-1.737 -8.925,-3.325 -12.771,-4.758c-7.575,-2.854 -13.496,-5.088 -17.641,-6.654c-1.93,-0.75 -3.442,-1.342 -4.567,-1.779c-1.017,-0.409 -1.538,-0.638 -1.521,-0.671Z" style="fill:#263238;fill-rule:nonzero;"/></g></g><g opacity="0.3"><path d="M774.85,1198.93c0,0 36.212,-75.108 315.863,-78.295c279.65,-3.188 315.862,78.295 315.862,78.295c0,0 -282.087,139.125 -631.725,0Z" style="fill-rule:nonzero;"/></g><g><g><path d="M1029.89,609.65c-0,0.038 -0.325,0.092 -0.963,0.163c-0.766,0.07 -1.696,0.154 -2.825,0.254c-2.479,0.258 -6.158,0.333 -10.854,0.9c-9.412,0.854 -23.004,2.708 -39.454,6.537c-16.45,3.804 -35.692,9.967 -55.946,19.354c-20.25,9.35 -41.375,22.171 -61.296,38.484c-19.8,16.47 -36.4,34.783 -49.425,52.891c-13.058,18.109 -22.762,35.834 -29.616,51.263c-6.884,15.425 -11.28,28.412 -13.905,37.496c-1.445,4.504 -2.22,8.1 -2.941,10.487c-0.317,1.092 -0.575,1.988 -0.788,2.725c-0.191,0.613 -0.304,0.921 -0.341,0.913c-0.038,-0.009 0.008,-0.334 0.125,-0.963c0.158,-0.754 0.345,-1.667 0.579,-2.779c0.587,-2.421 1.229,-6.058 2.554,-10.613c2.383,-9.179 6.575,-22.295 13.317,-37.887c6.712,-15.592 16.337,-33.508 29.395,-51.804c13.025,-18.3 29.709,-36.8 49.671,-53.4c20.084,-16.442 41.404,-29.309 61.842,-38.625c20.442,-9.35 39.858,-15.4 56.437,-19.034c16.584,-3.658 30.263,-5.287 39.725,-5.887c4.721,-0.438 8.417,-0.379 10.909,-0.496c1.137,-0.017 2.071,-0.029 2.837,-0.042c0.633,0.005 0.963,0.025 0.963,0.063Z" style="fill:#fff;fill-rule:nonzero;"/></g></g><g><g><path d="M768.317,930.4c-0.25,0.104 -1.863,-3.008 -3.8,-8.321c-1.942,-5.304 -4.092,-12.854 -5.438,-21.392c-1.329,-8.541 -1.592,-16.391 -1.366,-22.033c0.22,-5.65 0.804,-9.104 1.074,-9.083c0.684,0.029 -0.262,13.946 2.438,30.779c2.575,16.85 7.729,29.813 7.092,30.05Z" style="fill:#fff;fill-rule:nonzero;"/></g></g><g><g><path d="M698.2,908.871c-0.104,0.087 -0.946,-0.675 -2.254,-2.246c-1.313,-1.567 -3.021,-4.012 -4.713,-7.279c-3.4,-6.454 -6.35,-16.713 -4.862,-28.004c1.508,-11.292 7.033,-20.429 11.996,-25.775c2.483,-2.713 4.77,-4.63 6.445,-5.8c1.675,-1.175 2.688,-1.692 2.763,-1.584c0.242,0.313 -3.513,2.854 -8.046,8.384c-4.521,5.441 -9.571,14.291 -11.008,25.058c-1.417,10.762 1.146,20.625 4.091,27.058c2.938,6.513 5.9,9.95 5.588,10.188Z" style="fill:#fff;fill-rule:nonzero;"/></g></g><g><g><path d="M1079.22,475.763c-0.092,0.408 -3.804,-0.959 -9.804,-0.242c-5.85,0.612 -14.263,3.987 -19.254,11.65c-4.892,7.729 -4.454,16.783 -2.579,22.358c1.845,5.759 4.633,8.563 4.3,8.817c-0.092,0.087 -0.867,-0.513 -2.013,-1.846c-1.154,-1.329 -2.571,-3.5 -3.733,-6.458c-2.359,-5.754 -3.171,-15.534 2.2,-24.042c5.5,-8.421 14.725,-11.754 20.941,-12.004c3.175,-0.171 5.738,0.212 7.425,0.708c1.692,0.484 2.559,0.938 2.517,1.059Z" style="fill:#fff;fill-rule:nonzero;"/></g></g><g><g><path d="M1442.34,858.333c-0.454,0.492 -6.938,-5.695 -16.729,-10.383c-9.746,-4.792 -18.617,-6.054 -18.513,-6.712c-0.017,-0.534 9.308,-0.213 19.458,4.762c10.188,4.888 16.217,12.013 15.784,12.333Z" style="fill:#fff;fill-rule:nonzero;"/></g></g><g><g><path d="M871.013,1587.79c-0.034,0.016 -0.213,-0.255 -0.53,-0.805c-0.37,-0.666 -0.816,-1.475 -1.362,-2.458c-1.242,-2.35 -2.929,-5.537 -5.058,-9.554c-1.088,-2.104 -2.284,-4.421 -3.588,-6.942c-1.208,-2.604 -2.517,-5.416 -3.917,-8.433c-2.837,-6.042 -6.029,-12.938 -9.129,-20.746c-1.596,-3.892 -3.266,-7.958 -5.004,-12.196c-1.592,-4.304 -3.246,-8.775 -4.962,-13.404c-3.58,-9.212 -6.613,-19.325 -10.188,-29.842c-6.529,-21.225 -12.938,-44.8 -18.563,-69.804c-5.504,-25.037 -9.72,-49.1 -13.041,-71.054c-3.067,-21.992 -5.496,-41.842 -6.829,-58.583c-0.813,-8.354 -1.3,-15.934 -1.717,-22.588c-0.467,-6.65 -0.779,-12.383 -0.912,-17.079c-0.15,-4.542 -0.271,-8.146 -0.359,-10.8c-0.016,-1.125 -0.029,-2.046 -0.037,-2.812c0.004,-0.634 0.025,-0.959 0.062,-0.959c0.038,0 0.092,0.321 0.163,0.95c0.066,0.763 0.15,1.679 0.254,2.8c0.187,2.65 0.442,6.242 0.762,10.775c0.267,4.684 0.7,10.4 1.284,17.038c0.533,6.637 1.125,14.2 2.033,22.533c1.525,16.696 4.108,36.496 7.279,58.429c3.421,21.896 7.692,45.896 13.179,70.875c5.613,24.946 11.946,48.475 18.355,69.679c3.512,10.5 6.47,20.613 9.97,29.825c1.667,4.634 3.28,9.109 4.83,13.413c1.687,4.242 3.312,8.321 4.862,12.217c3,7.829 6.088,14.745 8.813,20.82c1.337,3.034 2.587,5.871 3.745,8.492c1.242,2.55 2.38,4.888 3.413,7.013c1.971,4.091 3.537,7.337 4.692,9.729c0.47,1.025 0.854,1.862 1.17,2.558c0.25,0.588 0.363,0.896 0.33,0.913Z" style="fill:#fff;fill-rule:nonzero;"/></g></g><g><g><path d="M707.792,1248.1c-0.042,0.596 -13.675,0.112 -30.446,-1.079c-16.775,-1.196 -30.338,-2.65 -30.296,-3.246c0.042,-0.596 13.671,-0.112 30.45,1.083c16.771,1.192 30.338,2.646 30.292,3.242Z" style="fill:#fff;fill-rule:nonzero;"/></g></g><g><g><path d="M551.042,1159.14c-0.525,0.287 -7.625,-11.8 -15.859,-26.992c-8.233,-15.196 -14.479,-27.742 -13.95,-28.029c0.525,-0.284 7.625,11.8 15.859,26.995c8.229,15.192 14.475,27.742 13.95,28.026Z" style="fill:#fff;fill-rule:nonzero;"/></g></g><g><g><path d="M1018.75,1719.16c-0.025,0.145 -1.758,-0.071 -4.883,-0.596c-3.129,-0.475 -7.6,-1.529 -13.029,-3.146c-5.446,-1.583 -11.771,-3.992 -18.584,-7.142c-6.758,-3.25 -13.975,-7.304 -21.091,-12.254c-7.071,-5.021 -13.325,-10.442 -18.675,-15.704c-5.271,-5.346 -9.675,-10.483 -13.009,-15.071c-3.358,-4.563 -5.862,-8.413 -7.371,-11.196c-1.55,-2.762 -2.341,-4.317 -2.212,-4.391c0.354,-0.213 3.837,5.854 10.796,14.654c3.45,4.42 7.921,9.387 13.196,14.583c5.354,5.112 11.554,10.404 18.52,15.354c7.013,4.879 14.088,8.921 20.709,12.229c6.671,3.204 12.858,5.729 18.187,7.479c10.638,3.571 17.525,4.796 17.446,5.2Z" style="fill:#fff;fill-rule:nonzero;"/></g></g><g><g><path d="M1082.67,1526.4c0.004,0.075 -1,0.175 -2.921,0.3c-1.921,0.038 -4.762,0.458 -8.416,0.242c-7.313,-0.017 -17.971,-1.192 -30.555,-4.959c-6.3,-1.845 -12.966,-4.604 -19.9,-8.004c-6.791,-3.658 -13.941,-7.866 -20.691,-13.362c-13.638,-10.729 -26.296,-25.788 -34.467,-44.209c-7.887,-18.554 -10.246,-38.087 -8.775,-55.379c0.596,-8.687 2.404,-16.783 4.367,-24.246c2.246,-7.387 4.783,-14.141 7.737,-20.004c5.838,-11.762 12.259,-20.35 17.238,-25.704c2.337,-2.821 4.587,-4.608 5.925,-5.983c1.4,-1.321 2.158,-1.984 2.212,-1.929c0.167,0.166 -2.771,2.954 -7.496,8.466c-4.75,5.484 -10.904,14.121 -16.491,25.817c-2.829,5.829 -5.246,12.525 -7.388,19.829c-1.858,7.375 -3.575,15.358 -4.104,23.913c-1.342,17.029 1.05,36.183 8.771,54.362c8.008,18.046 20.371,32.867 33.725,43.513c6.608,5.45 13.617,9.645 20.271,13.325c6.796,3.42 13.337,6.225 19.529,8.141c12.362,3.9 22.871,5.3 30.125,5.575c7.25,0.304 11.296,0.063 11.304,0.296Z" style="fill:#fff;fill-rule:nonzero;"/></g></g><g><g><path d="M578.217,1198.28c-0.175,0.35 -3.221,-1.204 -8.479,-2.4c-5.234,-1.221 -12.792,-1.683 -20.784,0.209c-7.983,1.937 -14.508,5.783 -18.621,9.245c-4.141,3.45 -6.154,6.217 -6.466,5.984c-0.179,-0.1 1.404,-3.238 5.45,-7.134c3.995,-3.895 10.754,-8.179 19.129,-10.204c8.379,-1.992 16.346,-1.237 21.675,0.417c5.371,1.633 8.208,3.712 8.096,3.883Z" style="fill:#fff;fill-rule:nonzero;"/></g></g><g><g><path d="M1193.48,783.996c0,0.6 -51.158,1.083 -114.25,1.083c-63.116,0 -114.262,-0.487 -114.262,-1.083c-0,-0.6 51.146,-1.083 114.262,-1.083c63.092,-0.005 114.25,0.483 114.25,1.083Z" style="fill:#fff;fill-rule:nonzero;"/></g></g><g><g><path d="M998.517,1044.53c0.004,0.075 -0.659,0.179 -1.934,0.313c-1.529,0.133 -3.366,0.291 -5.575,0.479c-2.42,0.208 -5.387,0.4 -8.841,0.454c-3.45,0.075 -7.384,0.271 -11.729,0.137c-8.696,-0.021 -19.046,-0.616 -30.484,-1.829c-11.421,-1.333 -23.925,-3.358 -36.858,-6.358c-12.921,-3.088 -25.013,-6.859 -35.833,-10.763c-10.78,-4.021 -20.309,-8.104 -28.096,-11.966c-3.95,-1.817 -7.379,-3.75 -10.434,-5.355c-3.066,-1.587 -5.633,-3.083 -7.708,-4.35c-1.892,-1.154 -3.462,-2.116 -4.775,-2.916c-1.079,-0.688 -1.625,-1.079 -1.587,-1.142c0.037,-0.067 0.658,0.2 1.808,0.767c1.362,0.7 3,1.541 4.962,2.554c2.134,1.15 4.75,2.533 7.859,4.012c3.096,1.496 6.558,3.326 10.529,5.046c7.837,3.667 17.371,7.579 28.121,11.471c10.787,3.775 22.816,7.463 35.65,10.529c12.85,2.979 25.254,5.05 36.591,6.484c11.355,1.312 21.634,2.062 30.284,2.283c4.321,0.233 8.237,0.142 11.675,0.183c3.441,0.063 6.4,-0.008 8.821,-0.083c2.212,-0.029 4.054,-0.054 5.583,-0.071c1.292,0.004 1.966,0.046 1.971,0.121Z" style="fill:#fff;fill-rule:nonzero;"/></g></g><g><g><path d="M1331.11,1232.31c0.013,0.038 -0.325,0.188 -0.995,0.455c-0.792,0.295 -1.78,0.666 -2.996,1.125c-2.809,1 -6.684,2.379 -11.592,4.125c-5.029,1.812 -11.212,3.929 -18.5,6.066c-7.271,2.179 -15.487,4.892 -24.762,7.204c-4.625,1.225 -9.463,2.505 -14.505,3.838c-5.05,1.312 -10.37,2.396 -15.845,3.667c-10.93,2.65 -22.763,4.729 -35.184,7.075c-24.925,4.204 -52.525,7.725 -81.646,9.608c-29.141,1.696 -56.975,1.583 -82.229,0.458c-12.616,-0.804 -24.616,-1.425 -35.787,-2.712c-5.588,-0.592 -11.004,-1.017 -16.175,-1.7c-5.167,-0.705 -10.125,-1.384 -14.867,-2.03c-9.487,-1.158 -17.975,-2.85 -25.458,-4.12c-7.492,-1.23 -13.888,-2.575 -19.1,-3.759c-5.084,-1.133 -9.096,-2.025 -12.009,-2.675c-1.262,-0.304 -2.287,-0.55 -3.108,-0.75c-0.7,-0.179 -1.05,-0.291 -1.042,-0.329c0.009,-0.037 0.38,0 1.092,0.113c0.838,0.141 1.871,0.32 3.154,0.537c2.929,0.55 6.967,1.313 12.079,2.275c5.234,1.054 11.642,2.275 19.142,3.392c7.492,1.154 15.975,2.737 25.458,3.796c4.734,0.604 9.692,1.233 14.85,1.887c5.167,0.642 10.571,1.017 16.15,1.571c11.155,1.208 23.125,1.758 35.713,2.508c25.192,1.013 52.942,1.067 82,-0.625c29.037,-1.879 56.567,-5.329 81.442,-9.412c12.395,-2.284 24.212,-4.292 35.133,-6.859c5.471,-1.233 10.787,-2.27 15.837,-3.537c5.042,-1.283 9.884,-2.517 14.509,-3.692c9.283,-2.212 17.512,-4.821 24.804,-6.883c7.308,-2.025 13.521,-4.021 18.587,-5.708c4.959,-1.584 8.875,-2.83 11.713,-3.734c1.246,-0.375 2.254,-0.675 3.066,-0.921c0.701,-0.204 1.059,-0.287 1.071,-0.254Z" style="fill:#fff;fill-rule:nonzero;"/></g></g></g></g></svg>